<svg xmlns="http://www.w3.org/2000/svg" viewBox="0 0 443.37 374.65"><defs><style>.cls-1{fill:#ffff8f;}.cls-2{fill:#6ece6e;}.cls-3{fill:#3b8c3b;}.cls-4{fill:#235b24;stroke-width:5px;}.cls-11,.cls-4{stroke:#235b24;}.cls-11,.cls-12,.cls-4,.cls-5{stroke-miterlimit:10;}.cls-11,.cls-12,.cls-5{fill:none;}.cls-12,.cls-5{stroke:#fff;}.cls-5{stroke-width:76px;}.cls-6{font-size:52px;}.cls-6,.cls-9{fill:#323c4c;font-family:AvenirLTStd-Heavy, Avenir LT Std;}.cls-7{letter-spacing:-0.02em;}.cls-8{letter-spacing:-0.09em;}.cls-9{font-size:30px;letter-spacing:0.2em;}.cls-10{letter-spacing:0.11em;}.cls-11{stroke-width:18px;}.cls-12{stroke-width:8px;}</style></defs><title>coldwater logo green yellow with mountain</title><g id="Layer_8" data-name="Layer 8"><path class="cls-1" d="M86,314.32,438.31,312s39.14-213.78-171-227.7S75.59,334,86,314.32Z" transform="translate(-67.39 -75.31)"/></g><g id="Layer_3" data-name="Layer 3"><path class="cls-2" d="M435.71,219.29s-38.48-1.3-54.66-8.43-105.78-37-111-37-66.47,36.35-80.92,39.59-71.68-3.89-71.68-3.89-23.37-3.79-28,18.33-9.69,6.34-9.69,6.34S93.3,435.4,275.61,415.61,422.73,214.1,435.71,219.29" transform="translate(-67.39 -75.31)"/></g><g id="Layer_2" data-name="Layer 2"><path class="cls-3" d="M101.28,342.81l66.22-21,42.77,7.51s42.78-2.89,59-15.6,59.54-43.93,59.54-43.93,35.26,13.87,52,13.29,57.52-5.66,57.52-5.66-2.42,114.28-122.45,154.77-214.58-89.41-214.58-89.41" transform="translate(-67.39 -75.31)"/></g><g id="Layer_4" data-name="Layer 4"><path class="cls-4" d="M130.63,384.72s60-44.38,91.78-34,82.08,20.81,82.08,20.81,52-19.65,54.91-19.08,44.51,8.67,44.51,8.67-91.64,158.72-273.28,23.58" transform="translate(-67.39 -75.31)"/></g><g id="Layer_5" data-name="Layer 5"><line class="cls-5" x1="383.34" y1="190.66" x2="0.11" y2="189.6"/></g><g id="Layer_6" data-name="Layer 6"><text class="cls-6" transform="translate(30.07 194.19)">COLD<tspan class="cls-7" x="145.39" y="0">W</tspan><tspan class="cls-8" x="195.1" y="0">A</tspan><tspan x="227.86" y="0">TER</tspan></text><text class="cls-9" transform="translate(87.65 223.24)">MOUN<tspan class="cls-10" x="122.31" y="0">T</tspan><tspan x="142.77" y="0">AIN</tspan></text></g><g id="Layer_1" data-name="Layer 1"><circle class="cls-11" cx="193.2" cy="187.32" r="178.32"/><ellipse class="cls-12" cx="192.77" cy="188.21" rx="170.7" ry="168.77"/></g></svg>